<?xml version="1.0" encoding="UTF-8"?>
<svg version="1.1" xmlns="http://www.w3.org/2000/svg" width="215" height="65">
<path d="M0 0 C1.11696762 0.00222061 2.23393524 0.00444122 3.38475037 0.00672913 C4.64598221 0.00680466 5.90721405 0.00688019 7.20666504 0.00695801 C8.59341979 0.01206542 9.98017414 0.01728142 11.3669281 0.02259827 C12.77797394 0.0244625 14.18902042 0.02588638 15.60006714 0.02688599 C19.3204272 0.03071072 23.04074845 0.04054062 26.76109314 0.05158997 C30.55482966 0.06180504 34.34857243 0.06638381 38.14231873 0.07142639 C45.59090416 0.08216294 53.03945758 0.09923882 60.48802185 0.12025452 C60.15802185 1.11025452 59.82802185 2.10025452 59.48802185 3.12025452 C56.86302185 4.33119202 56.86302185 4.33119202 53.48802185 5.49525452 C44.25401234 8.89353184 37.40210982 12.07245638 31.48802185 20.12025452 C32.20989685 19.37775452 32.93177185 18.63525452 33.67552185 17.87025452 C38.25690137 13.39068343 42.44365433 10.45204769 48.36302185 7.93275452 C49.53606873 7.42357483 50.7091156 6.91439514 51.91770935 6.38978577 C55.48471781 5.12142937 58.74593471 4.60063122 62.48802185 4.12025452 C62.53439005 11.48302044 62.56991381 18.8457548 62.59164619 26.20863724 C62.60207737 29.62763379 62.61622428 33.04653035 62.63890076 36.46546936 C62.66481518 40.39726052 62.67450018 44.32901137 62.68333435 48.26087952 C62.69365692 49.48703979 62.70397949 50.71320007 62.71461487 51.97651672 C62.71476593 53.11739746 62.71491699 54.2582782 62.71507263 55.43373108 C62.71951385 56.43744751 62.72395508 57.44116394 62.72853088 58.47529602 C62.48285862 61.1770363 61.87157295 62.81212312 60.48802185 65.12025452 C52.29111624 65.14338162 44.09422417 65.16117147 35.89729404 65.17206669 C32.09150608 65.17729472 28.28574037 65.1843909 24.47996521 65.19569397 C20.81009641 65.20652572 17.14024907 65.21253196 13.47036552 65.21513176 C12.06727193 65.21698549 10.66417956 65.22060512 9.26109505 65.22598457 C7.30232505 65.23319871 5.34353365 65.2336626 3.38475037 65.23377991 C2.26778275 65.23600052 1.15081512 65.23822113 0 65.24050903 C-2.51197815 65.12025452 -2.51197815 65.12025452 -3.51197815 64.12025452 C-3.61123588 62.16200754 -3.63997229 60.20015555 -3.64137268 58.23939514 C-3.64452484 56.98139099 -3.647677 55.72338684 -3.65092468 54.42726135 C-3.6491349 53.04367539 -3.64708395 51.66008974 -3.64479065 50.27650452 C-3.64546374 48.86785363 -3.6464338 47.45920286 -3.64768982 46.05055237 C-3.64916657 43.09477129 -3.64701298 40.13902038 -3.64234924 37.1832428 C-3.63665195 33.38650868 -3.63993108 29.58984523 -3.64592171 25.79311371 C-3.64952794 22.88329024 -3.64838845 19.97348364 -3.64579391 17.06365967 C-3.64512482 15.66336051 -3.64595247 14.26305984 -3.64827347 12.86276245 C-3.65080097 10.90887988 -3.64626848 8.95499197 -3.64137268 7.00111389 C-3.64057709 5.88716248 -3.63978149 4.77321106 -3.63896179 3.62550354 C-3.46771472 0.24698523 -3.37997917 0.16180784 0 0 Z M26.48802185 17.12025452 C27.48802185 20.12025452 27.48802185 20.12025452 27.48802185 20.12025452 Z M15.48802185 20.12025452 C16.47802185 21.60525452 16.47802185 21.60525452 17.48802185 23.12025452 C17.48802185 22.13025452 17.48802185 21.14025452 17.48802185 20.12025452 C16.82802185 20.12025452 16.16802185 20.12025452 15.48802185 20.12025452 Z M25.48802185 21.12025452 C26.48802185 23.12025452 26.48802185 23.12025452 26.48802185 23.12025452 Z M29.48802185 22.12025452 C30.48802185 24.12025452 30.48802185 24.12025452 30.48802185 24.12025452 Z M24.48802185 23.12025452 C23.49802185 25.10025452 22.50802185 27.08025452 21.48802185 29.12025452 C22.14802185 29.12025452 22.80802185 29.12025452 23.48802185 29.12025452 C23.33204529 29.79572327 23.17606873 30.47119202 23.0153656 31.16712952 C22.82071716 32.05916077 22.62606873 32.95119202 22.42552185 33.87025452 C22.22829529 34.75197327 22.03106873 35.63369202 21.8278656 36.54212952 C21.48976313 39.1070448 21.6764355 40.69117091 22.48802185 43.12025452 C23.16107203 41.51875566 23.82624412 39.91394422 24.48802185 38.30775452 C24.85927185 37.4144342 25.23052185 36.52111389 25.61302185 35.60072327 C26.65435422 33.08711122 26.65435422 33.08711122 26.48802185 30.12025452 C25.82802185 30.12025452 25.16802185 30.12025452 24.48802185 30.12025452 C24.81802185 27.81025452 25.14802185 25.50025452 25.48802185 23.12025452 C25.15802185 23.12025452 24.82802185 23.12025452 24.48802185 23.12025452 Z M28.48802185 24.12025452 C29.48802185 26.12025452 29.48802185 26.12025452 29.48802185 26.12025452 Z M27.48802185 26.12025452 C27.15802185 27.44025452 26.82802185 28.76025452 26.48802185 30.12025452 C27.14802185 28.80025452 27.80802185 27.48025452 28.48802185 26.12025452 C28.15802185 26.12025452 27.82802185 26.12025452 27.48802185 26.12025452 Z M11.48802185 30.12025452 C11.48802185 31.77025452 11.48802185 33.42025452 11.48802185 35.12025452 C12.14802185 34.79025452 12.80802185 34.46025452 13.48802185 34.12025452 C12.82802185 32.80025452 12.16802185 31.48025452 11.48802185 30.12025452 Z M10.48802185 36.12025452 C9.39143249 39.41002259 9.68849047 40.83329218 10.48802185 44.12025452 C12.82193388 41.33911396 12.82193388 41.33911396 12.11302185 38.43275452 C11.90677185 37.66962952 11.70052185 36.90650452 11.48802185 36.12025452 C11.15802185 36.12025452 10.82802185 36.12025452 10.48802185 36.12025452 Z M9.48802185 45.12025452 C8.82802185 46.77025452 8.16802185 48.42025452 7.48802185 50.12025452 C8.47802185 50.61525452 8.47802185 50.61525452 9.48802185 51.12025452 C9.81802185 49.14025452 10.14802185 47.16025452 10.48802185 45.12025452 C10.15802185 45.12025452 9.82802185 45.12025452 9.48802185 45.12025452 Z M2.48802185 60.12025452 C3.48802185 62.12025452 3.48802185 62.12025452 3.48802185 62.12025452 Z " fill="#000000" transform="translate(3.5119781494140625,-0.1202545166015625)"/>
<path d="M0 0 C3.3 0 6.6 0 10 0 C10 0.66 10 1.32 10 2 C9.01 2 8.02 2 7 2 C7.1409349 4.43787385 7.28754542 6.87517853 7.4375 9.3125 C7.47681641 10.00279297 7.51613281 10.69308594 7.55664062 11.40429688 C7.74927415 14.47161535 8.02322717 17.06968152 9 20 C10.65 20 12.3 20 14 20 C15.585869 16.828262 15.37866445 13.36486178 15.5625 9.875 C15.60568359 9.12089844 15.64886719 8.36679688 15.69335938 7.58984375 C15.7994832 5.72678112 15.90025001 3.86341476 16 2 C15.01 2 14.02 2 13 2 C13 1.34 13 0.68 13 0 C20.26 0 27.52 0 35 0 C34.25565924 3.72170379 33.78398291 5.80270004 32.15234375 8.98828125 C31.79462891 9.69404297 31.43691406 10.39980469 31.06835938 11.12695312 C30.69517578 11.84818359 30.32199219 12.56941406 29.9375 13.3125 C29.56044922 14.05306641 29.18339844 14.79363281 28.79492188 15.55664062 C27.86871843 17.37387522 26.93509371 19.18732404 26 21 C28.96970028 20.19081589 28.96970028 20.19081589 32 19 C33.43923199 16.49004504 33.43923199 16.49004504 34 14 C34.66 14.33 35.32 14.66 36 15 C36 16.98 36 18.96 36 21 C36.66 21 37.32 21 38 21 C38.11214844 20.17242188 38.22429687 19.34484375 38.33984375 18.4921875 C39.08518012 14.5494022 40.25343082 10.9092 41.5625 7.125 C41.91344727 6.09246094 41.91344727 6.09246094 42.27148438 5.0390625 C42.84352499 3.35796355 43.42118456 1.67877837 44 0 C44.66 0 45.32 0 46 0 C47.00736628 2.93502595 48.00460504 5.87339461 49 8.8125 C49.28617188 9.64587891 49.57234375 10.47925781 49.8671875 11.33789062 C50.13789063 12.14033203 50.40859375 12.94277344 50.6875 13.76953125 C50.93886719 14.50792236 51.19023437 15.24631348 51.44921875 16.00708008 C52 18 52 18 52 21 C53.65 21 55.3 21 57 21 C57 14.73 57 8.46 57 2 C56.01 1.67 55.02 1.34 54 1 C55 0 55 0 58.125 -0.75 C62 0 62 0 64.01953125 2.453125 C65.78403468 5.25620581 67.43979302 8.07876141 69 11 C69.33 8.03 69.66 5.06 70 2 C69.01 2 68.02 2 67 2 C67 1.34 67 0.68 67 0 C72.18334197 -0.66042581 76.84192744 -0.99030757 82 0 C85.36315832 3.22431234 87.21652593 6.72521391 89 11 C89.33 8.03 89.66 5.06 90 2 C89.01 2 88.02 2 87 2 C87 1.34 87 0.68 87 0 C94.92 0 102.84 0 111 0 C111 2.64 111 5.28 111 8 C110.34 8 109.68 8 109 8 C108.505 5.525 108.505 5.525 108 3 C105.69 2.67 103.38 2.34 101 2 C101 4.64 101 7.28 101 10 C102.65 8.68 104.3 7.36 106 6 C106 9.3 106 12.6 106 16 C104.35 14.68 102.7 13.36 101 12 C101 14.97 101 17.94 101 21 C103.31 20.67 105.62 20.34 108 20 C108.66 18.02 109.32 16.04 110 14 C110.33 14 110.66 14 111 14 C111 16.97 111 19.94 111 23 C105.39 23 99.78 23 94 23 C94 22.34 94 21.68 94 21 C94.66 21 95.32 21 96 21 C96 14.73 96 8.46 96 2 C94.35 2 92.7 2 91 2 C91 8.93 91 15.86 91 23 C90.34 23 89.68 23 89 23 C87.3682707 20.52589781 85.85299836 18.06340341 84.375 15.5 C83.95476562 14.78457031 83.53453125 14.06914062 83.1015625 13.33203125 C82.06111411 11.55853967 81.02971096 9.77974734 80 8 C78.67770811 10.64458379 78.90322806 12.67761301 78.9375 15.625 C78.94652344 16.62789062 78.95554687 17.63078125 78.96484375 18.6640625 C78.97644531 19.43492188 78.98804688 20.20578125 79 21 C79.66 21 80.32 21 81 21 C81 21.66 81 22.32 81 23 C78.69 23 76.38 23 74 23 C74 22.34 74 21.68 74 21 C74.99 21 75.98 21 77 21 C77 14.73 77 8.46 77 2 C75.02 2 73.04 2 71 2 C71 8.93 71 15.86 71 23 C70.34 23 69.68 23 69 23 C67.3682707 20.52589781 65.85299836 18.06340341 64.375 15.5 C63.74464844 14.42685547 63.74464844 14.42685547 63.1015625 13.33203125 C62.06111411 11.55853967 61.02971096 9.77974734 60 8 C59.67 12.29 59.34 16.58 59 21 C59.99 21.33 60.98 21.66 62 22 C61 23 61 23 57.40234375 23.09765625 C55.91403133 23.0909822 54.42573568 23.07902183 52.9375 23.0625 C52.17888672 23.05798828 51.42027344 23.05347656 50.63867188 23.04882812 C48.75908129 23.0370068 46.87953101 23.01907078 45 23 C44.505 22.01 44.505 22.01 44 21 C44.99 21 45.98 21 47 21 C46.67 19.35 46.34 17.7 46 16 C44.35 16 42.7 16 41 16 C40.505 18.475 40.505 18.475 40 21 C40.66 21 41.32 21 42 21 C42 21.66 42 22.32 42 23 C34.74 23 27.48 23 20 23 C20.70739496 19.46302519 21.15928948 17.30330382 22.62890625 14.23046875 C22.94150391 13.56982422 23.25410156 12.90917969 23.57617188 12.22851562 C23.90166016 11.55498047 24.22714844 10.88144531 24.5625 10.1875 C24.89185547 9.49462891 25.22121094 8.80175781 25.56054688 8.08789062 C26.36872251 6.38955052 27.18368377 4.69444231 28 3 C26.03506426 3.34520448 26.03506426 3.34520448 24 4 C22.71563266 5.9837767 22.71563266 5.9837767 22 8 C21.34 8 20.68 8 20 8 C20 6.02 20 4.04 20 2 C19.01 2 18.02 2 17 2 C17.01571045 2.56509277 17.0314209 3.13018555 17.04760742 3.71240234 C17.10987045 6.26650023 17.14896136 8.82043871 17.1875 11.375 C17.21263672 12.26445312 17.23777344 13.15390625 17.26367188 14.0703125 C17.27333984 14.92109375 17.28300781 15.771875 17.29296875 16.6484375 C17.3086792 17.43395996 17.32438965 18.21948242 17.34057617 19.02880859 C17.22818604 19.67930176 17.1157959 20.32979492 17 21 C13.24952518 23.50031654 11.44143734 23.53603554 7 23 C4.32530769 21.01617338 2.30608278 19.46795949 1.6015625 16.08911133 C1.50836792 13.93423992 1.56243626 11.84052034 1.6875 9.6875 C1.71005859 8.94693359 1.73261719 8.20636719 1.75585938 7.44335938 C1.8144185 5.62802643 1.90409114 3.81374319 2 2 C1.34 2 0.68 2 0 2 C0 1.34 0 0.68 0 0 Z M43 9 C42.34 10.98 41.68 12.96 41 15 C42.32 15 43.64 15 45 15 C44.67 13.02 44.34 11.04 44 9 C43.67 9 43.34 9 43 9 Z " fill="#000000" transform="translate(104,1)"/>
<path d="M0 0 C3.63 0 7.26 0 11 0 C11 0.66 11 1.32 11 2 C10.01 2.495 10.01 2.495 9 3 C9.99 5.97 10.98 8.94 12 12 C12.804375 9.8653125 12.804375 9.8653125 13.625 7.6875 C13.92664063 6.88699219 14.22828125 6.08648437 14.5390625 5.26171875 C14.69117187 4.51535156 14.84328125 3.76898437 15 3 C14.34 2.01 13.68 1.02 13 0 C20.59 0 28.18 0 36 0 C36 2.64 36 5.28 36 8 C34 7 34 7 33.1875 5 C32.14044802 2.71525923 32.14044802 2.71525923 29.375 2.25 C28.59125 2.1675 27.8075 2.085 27 2 C27.33 4.31 27.66 6.62 28 9 C28.66 8.01 29.32 7.02 30 6 C30.66 6 31.32 6 32 6 C32 8.97 32 11.94 32 15 C31.34 15 30.68 15 30 15 C29.01 14.01 28.02 13.02 27 12 C27 14.97 27 17.94 27 21 C29.97017694 20.37189827 29.97017694 20.37189827 33 19 C34.43923199 16.49004504 34.43923199 16.49004504 35 14 C35.66 14 36.32 14 37 14 C37 16.31 37 18.62 37 21 C37.99 21 38.98 21 40 21 C40 14.73 40 8.46 40 2 C39.01 1.67 38.02 1.34 37 1 C37 0.67 37 0.34 37 0 C42.02072539 -0.96891192 42.02072539 -0.96891192 45 0 C47.88052941 3.37587278 49.9589963 7.07106788 52 11 C52.33 8.03 52.66 5.06 53 2 C52.01 2 51.02 2 50 2 C50 1.34 50 0.68 50 0 C52.31 0 54.62 0 57 0 C57 0.66 57 1.32 57 2 C56.01 2 55.02 2 54 2 C54 8.93 54 15.86 54 23 C53.34 23 52.68 23 52 23 C50.3682707 20.52589781 48.85299836 18.06340341 47.375 15.5 C46.74464844 14.42685547 46.74464844 14.42685547 46.1015625 13.33203125 C45.06111411 11.55853967 44.02971096 9.77974734 43 8 C42.67 12.29 42.34 16.58 42 21 C42.99 21.33 43.98 21.66 45 22 C36.65667456 23.19190363 28.40676978 23.09283549 20 23 C20 22.34 20 21.68 20 21 C20.66 21 21.32 21 22 21 C22 14.73 22 8.46 22 2 C20.68 2.33 19.36 2.66 18 3 C16.94350533 4.87180317 16.94350533 4.87180317 16.40234375 7.21875 C16.15806641 8.06824219 15.91378906 8.91773438 15.66210938 9.79296875 C15.42298828 10.68628906 15.18386719 11.57960938 14.9375 12.5 C14.45781724 14.26350214 13.9674458 16.02414257 13.46484375 17.78125 C13.254646 18.56564453 13.04444824 19.35003906 12.82788086 20.15820312 C12.55468018 20.76599609 12.28147949 21.37378906 12 22 C11.01 22.33 10.02 22.66 9 23 C7.99534271 19.87647773 6.99707073 16.75095147 6 13.625 C5.71382813 12.73554687 5.42765625 11.84609375 5.1328125 10.9296875 C4.86210938 10.07890625 4.59140625 9.228125 4.3125 8.3515625 C4.06113281 7.56604004 3.80976562 6.78051758 3.55078125 5.97119141 C3 4 3 4 3 2 C2.01 1.67 1.02 1.34 0 1 C0 0.67 0 0.34 0 0 Z " fill="#000000" transform="translate(106,27)"/>
<path d="M0 0 C3 1 3 1 3.89135742 2.73413086 C4.12701416 3.47026611 4.3626709 4.20640137 4.60546875 4.96484375 C4.86650391 5.76470703 5.12753906 6.56457031 5.39648438 7.38867188 C5.65751953 8.22978516 5.91855469 9.07089844 6.1875 9.9375 C6.46013672 10.77474609 6.73277344 11.61199219 7.01367188 12.47460938 C9 18.66259398 9 18.66259398 9 21 C10.32 21 11.64 21 13 21 C13 14.73 13 8.46 13 2 C12.34 2 11.68 2 11 2 C11 1.34 11 0.68 11 0 C14.3 0 17.6 0 21 0 C21 0.66 21 1.32 21 2 C20.01 2 19.02 2 18 2 C18 8.27 18 14.54 18 21 C23.90544978 19.69928437 23.90544978 19.69928437 25.8125 16.375 C26.4003125 15.199375 26.4003125 15.199375 27 14 C27.33 14 27.66 14 28 14 C28 16.31 28 18.62 28 21 C28.99 21 29.98 21 31 21 C31 14.73 31 8.46 31 2 C30.34 2 29.68 2 29 2 C29 1.34 29 0.68 29 0 C32.3 0 35.6 0 39 0 C38.67 0.66 38.34 1.32 38 2 C37.34 2 36.68 2 36 2 C36 8.27 36 14.54 36 21 C41.9794353 19.77756788 41.9794353 19.77756788 43.375 16.375 C43.58125 15.59125 43.7875 14.8075 44 14 C44.33 14 44.66 14 45 14 C45 16.97 45 19.94 45 23 C38.91277254 23.04934154 32.8256608 23.08569167 26.73828125 23.10986328 C24.66632053 23.11993712 22.59437407 23.13359666 20.52246094 23.15087891 C17.54879236 23.17506664 14.5753113 23.18646908 11.6015625 23.1953125 C10.20618759 23.21079636 10.20618759 23.21079636 8.78262329 23.22659302 C7.92188202 23.22674408 7.06114075 23.22689514 6.17431641 23.22705078 C5.41486725 23.231492 4.65541809 23.23593323 3.87295532 23.24050903 C2 23 2 23 0 21 C0.99 20.67 1.98 20.34 3 20 C2.67 19.01 2.34 18.02 2 17 C0.35 16.67 -1.3 16.34 -3 16 C-3.33 17.65 -3.66 19.3 -4 21 C-3.34 21.33 -2.68 21.66 -2 22 C-3.875 22.625 -3.875 22.625 -6 23 C-6.66 22.34 -7.32 21.68 -8 21 C-7.34 21 -6.68 21 -6 21 C-5.83177734 19.75863281 -5.83177734 19.75863281 -5.66015625 18.4921875 C-4.91481988 14.5494022 -3.74656918 10.9092 -2.4375 7.125 C-2.20353516 6.43664063 -1.96957031 5.74828125 -1.72851562 5.0390625 C-1.15647501 3.35796355 -0.57881544 1.67877837 0 0 Z M-1 9 C-1.33 10.98 -1.66 12.96 -2 15 C-0.68 15 0.64 15 2 15 C1.34 13.02 0.68 11.04 0 9 C-0.33 9 -0.66 9 -1 9 Z " fill="#000000" transform="translate(170,27)"/>
<path d="M0 0 C1.91541138 -0.10841951 3.83259773 -0.18578079 5.75 -0.25 C6.81734375 -0.29640625 7.8846875 -0.3428125 8.984375 -0.390625 C12 0 12 0 14.40625 1.85546875 C16 4 16 4 15.75 6.5625 C15.5025 7.366875 15.255 8.17125 15 9 C15 9.99 15 10.98 15 12 C15.33 12.33 15.66 12.66 16 13 C16.14115161 15.67058851 16.04247107 18.32432238 16 21 C17.96435677 20.8054552 17.96435677 20.8054552 20 20 C21.08466251 18.24659276 21.08466251 18.24659276 21.66796875 16.03515625 C21.92126953 15.23529297 22.17457031 14.43542969 22.43554688 13.61132812 C22.68369141 12.77021484 22.93183594 11.92910156 23.1875 11.0625 C23.70100736 9.40729885 24.21529394 7.75233917 24.73046875 6.09765625 C24.95114014 5.36039307 25.17181152 4.62312988 25.39916992 3.86352539 C26 2 26 2 27 0 C27.66 0 28.32 0 29 0 C30.00736628 2.93502595 31.00460504 5.87339461 32 8.8125 C32.28617188 9.64587891 32.57234375 10.47925781 32.8671875 11.33789062 C33.13789062 12.14033203 33.40859375 12.94277344 33.6875 13.76953125 C33.93886719 14.50792236 34.19023438 15.24631348 34.44921875 16.00708008 C35 18 35 18 35 21 C35.99 21.33 36.98 21.66 38 22 C37 23 37 23 34.71484375 23.09765625 C33.79832031 23.08605469 32.88179687 23.07445313 31.9375 23.0625 C31.01839844 23.05347656 30.09929687 23.04445313 29.15234375 23.03515625 C28.44207031 23.02355469 27.73179688 23.01195313 27 23 C27 22.34 27 21.68 27 21 C27.99 21 28.98 21 30 21 C29.505 18.525 29.505 18.525 29 16 C27.35 16.33 25.7 16.66 24 17 C23.67 17.99 23.34 18.98 23 20 C23.66 20.66 24.32 21.32 25 22 C24 23 24 23 21.78515625 23.1328125 C20.88667969 23.13023438 19.98820312 23.12765625 19.0625 23.125 C18.16660156 23.12757812 17.27070312 23.13015625 16.34765625 23.1328125 C14 23 14 23 12 22 C11.5859375 19.71484375 11.5859375 19.71484375 11.375 16.9375 C11.30023438 16.01839844 11.22546875 15.09929688 11.1484375 14.15234375 C11.09945312 13.44207031 11.05046875 12.73179688 11 12 C9.68 12 8.36 12 7 12 C7 14.97 7 17.94 7 21 C7.66 21.33 8.32 21.66 9 22 C6.1875 22.625 6.1875 22.625 3 23 C2.01 22.34 1.02 21.68 0 21 C0.66 21 1.32 21 2 21 C2 14.73 2 8.46 2 2 C1.34 2 0.68 2 0 2 C0 1.34 0 0.68 0 0 Z M7 2 C7 4.64 7 7.28 7 10 C8.32 9.67 9.64 9.34 11 9 C11 7.02 11 5.04 11 3 C9.68 2.67 8.36 2.34 7 2 Z M26 9 C25.34 10.98 24.68 12.96 24 15 C25.32 15 26.64 15 28 15 C27.67 13.02 27.34 11.04 27 9 C26.67 9 26.34 9 26 9 Z " fill="#000000" transform="translate(73,27)"/>
<path d="M0 0 C0.90105469 0.02707031 1.80210938 0.05414063 2.73046875 0.08203125 C3.76107422 0.13423828 3.76107422 0.13423828 4.8125 0.1875 C4.8125 2.8275 4.8125 5.4675 4.8125 8.1875 C4.1525 8.1875 3.4925 8.1875 2.8125 8.1875 C2.4721875 6.9809375 2.4721875 6.9809375 2.125 5.75 C1.691875 4.904375 1.25875 4.05875 0.8125 3.1875 C-1.73525306 2.29363836 -1.73525306 2.29363836 -4.1875 2.1875 C-4.1875 3.8375 -4.1875 5.4875 -4.1875 7.1875 C-2.82625 7.55875 -2.82625 7.55875 -1.4375 7.9375 C2.02067171 9.26756604 3.65178199 10.1957366 5.8125 13.1875 C6.39953691 16.70972146 6.19240259 18.48196662 4.5 21.625 C0.12085 24.17101744 -4.33243849 22.95761321 -9.1875 22.1875 C-9.1875 19.5475 -9.1875 16.9075 -9.1875 14.1875 C-8.5275 14.1875 -7.8675 14.1875 -7.1875 14.1875 C-6.878125 14.991875 -6.56875 15.79625 -6.25 16.625 C-5.42414655 19.07830405 -5.42414655 19.07830405 -4.1875 20.1875 C-2.52132885 20.22813832 -0.85361905 20.230221 0.8125 20.1875 C1.1425 18.5375 1.4725 16.8875 1.8125 15.1875 C0.45125 14.81625 0.45125 14.81625 -0.9375 14.4375 C-4.39567171 13.10743396 -6.02678199 12.1792634 -8.1875 9.1875 C-8.63661305 6.04370866 -8.87725612 4.14599227 -6.984375 1.515625 C-4.55855297 -0.27737389 -2.98134793 -0.11615641 0 0 Z " fill="#000000" transform="translate(98.1875,0.8125)"/>
<path d="M0 0 C1.7015625 0.2784375 1.7015625 0.2784375 3.4375 0.5625 C4.613125 0.706875 5.78875 0.85125 7 1 C7.33 0.67 7.66 0.34 8 0 C9.99958364 -0.04080783 12.00045254 -0.04254356 14 0 C14.77842938 3.40562852 15.09978121 6.50765756 15 10 C10 10 5 10 0 10 C0 6.7 0 3.4 0 0 Z M3 2 C3 4.31 3 6.62 3 9 C3.66 8.34 4.32 7.68 5 7 C4.67958603 4.39719432 4.67958603 4.39719432 4 2 C3.67 2 3.34 2 3 2 Z M11 2 C12 4 12 4 12 4 Z M11 6 C12 9 12 9 12 9 Z " fill="#000000" transform="translate(73,1)"/>
<path d="M0 0 C0.66 0 1.32 0 2 0 C2.66 0.99 3.32 1.98 4 3 C4.66 2.01 5.32 1.02 6 0 C6.66 0 7.32 0 8 0 C8 3.3 8 6.6 8 10 C4 9 4 9 3 8 C2.67 8.66 2.34 9.32 2 10 C1.01 10 0.02 10 -1 10 C-1.02689216 8.52093108 -1.04634621 7.04172517 -1.0625 5.5625 C-1.07410156 4.73878906 -1.08570313 3.91507813 -1.09765625 3.06640625 C-1 1 -1 1 0 0 Z " fill="#000000" transform="translate(207,55)"/>
<path d="M0 0 C0.66 0 1.32 0 2 0 C2.33 1.32 2.66 2.64 3 4 C3.66 4 4.32 4 5 4 C5.33 2.68 5.66 1.36 6 0 C6.66 0 7.32 0 8 0 C9.60725635 3.21451269 9.05748185 6.43612536 9 10 C8.34 10 7.68 10 7 10 C6.67 9.01 6.34 8.02 6 7 C5.5875 7.495 5.175 7.99 4.75 8.5 C3 10 3 10 -1 10 C-1.02689216 8.52093108 -1.04634621 7.04172517 -1.0625 5.5625 C-1.07410156 4.73878906 -1.08570313 3.91507813 -1.09765625 3.06640625 C-1 1 -1 1 0 0 Z " fill="#000000" transform="translate(156,55)"/>
<path d="M0 0 C0.99 0 1.98 0 3 0 C3.66 0.99 4.32 1.98 5 3 C5.33 2.01 5.66 1.02 6 0 C6.66 0 7.32 0 8 0 C9.4783226 2.95664519 9.06032783 5.74229737 9 9 C7.68 9 6.36 9 5 9 C4.34 8.01 3.68 7.02 3 6 C2.67 7.32 2.34 8.64 2 10 C1.34 10 0.68 10 0 10 C0 6.7 0 3.4 0 0 Z " fill="#000000" transform="translate(102,55)"/>
<path d="M0 0 C0.625 3.375 0.625 3.375 1 7 C-1 9 -1 9 -4 9.3125 C-4.99 9.209375 -5.98 9.10625 -7 9 C-9 6 -9 6 -8.75 2.875 C-8.37875 1.451875 -8.37875 1.451875 -8 0 C-5.13822943 -1.43088528 -3.06624227 -0.59991697 0 0 Z M-5 1 C-5.33 2.65 -5.66 4.3 -6 6 C-4.68 6 -3.36 6 -2 6 C-2.33 4.35 -2.66 2.7 -3 1 C-3.66 1 -4.32 1 -5 1 Z " fill="#000000" transform="translate(202,56)"/>
<path d="M0 0 C2.4375 0.9375 2.4375 0.9375 3.875 3.25 C4.4375 5.9375 4.4375 5.9375 3.5625 8.25 C3.005625 9.0853125 3.005625 9.0853125 2.4375 9.9375 C-0.4375 10.0625 -0.4375 10.0625 -3.5625 9.9375 C-5.5625 7.9375 -5.5625 7.9375 -5.875 4.9375 C-5.771875 3.9475 -5.66875 2.9575 -5.5625 1.9375 C-2.5625 -0.0625 -2.5625 -0.0625 0 0 Z M-1.5625 1.9375 C-2.2225 3.2575 -2.8825 4.5775 -3.5625 5.9375 C-1.5825 6.9275 -1.5825 6.9275 0.4375 7.9375 C0.7675 6.2875 1.0975 4.6375 1.4375 2.9375 C0.4475 2.6075 -0.5425 2.2775 -1.5625 1.9375 Z " fill="#000000" transform="translate(137.5625,55.0625)"/>
<path d="M0 0 C1.65 0 3.3 0 5 0 C6.58272601 1.58272601 6.34735747 3.38034003 6.5625 5.5625 C6.64628906 6.38878906 6.73007813 7.21507812 6.81640625 8.06640625 C6.87699219 8.70449219 6.93757813 9.34257813 7 10 C6.401875 9.814375 5.80375 9.62875 5.1875 9.4375 C2.83591238 8.77906313 2.83591238 8.77906313 0 10 C0 6.7 0 3.4 0 0 Z M2 2 C2 2.66 2 3.32 2 4 C2.66 3.67 3.32 3.34 4 3 C3.34 2.67 2.68 2.34 2 2 Z " fill="#000000" transform="translate(82,55)"/>
<path d="M0 0 C1.65 0 3.3 0 5 0 C5.66666667 3.33333333 6.33333333 6.66666667 7 10 C6.01 10 5.02 10 4 10 C3.67 9.34 3.34 8.68 3 8 C2.67 8.66 2.34 9.32 2 10 C1.34 10 0.68 10 0 10 C0 6.7 0 3.4 0 0 Z M2 2 C2 2.66 2 3.32 2 4 C2.66 3.67 3.32 3.34 4 3 C3.34 2.67 2.68 2.34 2 2 Z " fill="#000000" transform="translate(145,55)"/>
<path d="M0 0 C0.99 0 1.98 0 3 0 C3.99 3.3 4.98 6.6 6 10 C5.01 10 4.02 10 3 10 C3 9.34 3 8.68 3 8 C2.01 8 1.02 8 0 8 C0 8.66 0 9.32 0 10 C-0.99 10 -1.98 10 -3 10 C-2.01 6.7 -1.02 3.4 0 0 Z " fill="#000000" transform="translate(94,55)"/>
<path d="M0 0 C0.66 0 1.32 0 2 0 C2.99 3.3 3.98 6.6 5 10 C4.01 10 3.02 10 2 10 C2 9.34 2 8.68 2 8 C1.01 8 0.02 8 -1 8 C-1 8.66 -1 9.32 -1 10 C-1.66 10 -2.32 10 -3 10 C-2.69201674 8.51988629 -2.378482 7.04092675 -2.0625 5.5625 C-1.88847656 4.73878906 -1.71445313 3.91507813 -1.53515625 3.06640625 C-1 1 -1 1 0 0 Z " fill="#000000" transform="translate(171,55)"/>
<path d="M0 0 C1.65 0 3.3 0 5 0 C5 0.99 5 1.98 5 3 C4.01 3.495 4.01 3.495 3 4 C3.66 4.33 4.32 4.66 5 5 C5 6.65 5 8.3 5 10 C3.02 10 1.04 10 -1 10 C-1 9.34 -1 8.68 -1 8 C-0.01 7.67 0.98 7.34 2 7 C1.01 6.34 0.02 5.68 -1 5 C-0.67 3.35 -0.34 1.7 0 0 Z " fill="#000000" transform="translate(115,55)"/>
<path d="M0 0 C1.98 0 3.96 0 6 0 C6 0.66 6 1.32 6 2 C4.68 2 3.36 2 2 2 C2 2.66 2 3.32 2 4 C2.99 4 3.98 4 5 4 C5 4.66 5 5.32 5 6 C4.01 6 3.02 6 2 6 C2 7.32 2 8.64 2 10 C1.34 10 0.68 10 0 10 C0 6.7 0 3.4 0 0 Z " fill="#000000" transform="translate(124,55)"/>
<path d="M0 0 C2.64 0 5.28 0 8 0 C8 0.66 8 1.32 8 2 C7.01 2.495 7.01 2.495 6 3 C5.59270772 5.32156597 5.25561323 7.6568787 5 10 C4.34 10 3.68 10 3 10 C3 7.36 3 4.72 3 2 C2.01 2 1.02 2 0 2 C0 1.34 0 0.68 0 0 Z " fill="#000000" transform="translate(71,55)"/>
<path d="M0 0 C2.64 0 5.28 0 8 0 C8 0.66 8 1.32 8 2 C7.01 2 6.02 2 5 2 C5 4.64 5 7.28 5 10 C4.34 10 3.68 10 3 10 C3 7.36 3 4.72 3 2 C2.01 2 1.02 2 0 2 C0 1.34 0 0.68 0 0 Z " fill="#000000" transform="translate(177,55)"/>
<path d="M0 0 C0.66 0 1.32 0 2 0 C2 3.3 2 6.6 2 10 C1.34 10 0.68 10 0 10 C0 6.7 0 3.4 0 0 Z " fill="#000000" transform="translate(188,55)"/>
</svg>
