<?xml version="1.0" encoding="UTF-8"?>
<svg version="1.1" xmlns="http://www.w3.org/2000/svg" width="266" height="81">
<path d="M0 0 C1.08864349 0.00539291 1.08864349 0.00539291 2.19927979 0.01089478 C2.96020432 0.01074875 3.72112885 0.01060272 4.50511169 0.01045227 C7.03202113 0.01115155 9.55885776 0.01894462 12.08575439 0.02676392 C13.83310404 0.02862804 15.58045421 0.03005197 17.32780457 0.03105164 C21.93591749 0.03487724 26.54399909 0.04470788 31.15209961 0.05575562 C35.85068335 0.06596883 40.54927214 0.07054906 45.24786377 0.07559204 C54.47378902 0.08633011 63.69969098 0.10340704 72.92559814 0.12442017 C73.42059814 2.10442017 73.42059814 2.10442017 73.92559814 4.12442017 C73.19856689 4.28297485 72.47153564 4.44152954 71.72247314 4.60488892 C57.59060666 7.88420665 44.88902247 12.68096212 36.27716064 24.92520142 C33.86722794 28.84656591 31.85835163 32.95104095 29.92559814 37.12442017 C29.26559814 37.12442017 28.60559814 37.12442017 27.92559814 37.12442017 C28.14216064 36.36516235 28.35872314 35.60590454 28.58184814 34.82363892 C28.86028564 33.82977173 29.13872314 32.83590454 29.42559814 31.81192017 C29.70403564 30.82578735 29.98247314 29.83965454 30.26934814 28.82363892 C31.04372011 26.10154813 31.04372011 26.10154813 30.92559814 23.12442017 C30.49247314 24.15567017 30.05934814 25.18692017 29.61309814 26.24942017 C28.17647289 29.60838682 26.5913787 32.87218195 24.92559814 36.12442017 C25.58559814 36.12442017 26.24559814 36.12442017 26.92559814 36.12442017 C26.61748076 38.58337635 26.30430826 41.04150324 25.98809814 43.49942017 C25.90108643 44.19809204 25.81407471 44.89676392 25.72442627 45.61660767 C25.03887939 50.89785767 25.03887939 50.89785767 23.92559814 53.12442017 C24.58559814 53.12442017 25.24559814 53.12442017 25.92559814 53.12442017 C26.11122314 52.21176392 26.11122314 52.21176392 26.30059814 51.28067017 C29.14862029 39.17657605 34.73886758 26.71550237 43.92559814 18.12442017 C44.66809814 17.40254517 45.41059814 16.68067017 46.17559814 15.93692017 C52.97137445 11.45788579 64.20364393 5.09377074 72.56866455 6.60049438 C73.34645264 6.77338989 74.12424072 6.9462854 74.92559814 7.12442017 C74.94878589 15.90416112 74.96654604 24.68389151 74.97741032 33.46365643 C74.98262506 37.54061148 74.98969715 41.61754555 75.0010376 45.69448853 C75.01191651 49.63021361 75.0178856 53.56591853 75.02047539 57.50165749 C75.02232061 59.00192393 75.02592386 60.50218929 75.0313282 62.00244713 C75.03860505 64.1065241 75.03958628 66.21051815 75.03912354 68.31460571 C75.04134415 69.51151535 75.04356476 70.70842499 75.04585266 71.94160461 C74.93707671 74.82061334 74.72554428 77.35798342 73.92559814 80.12442017 C70.94804747 81.6131955 67.91045216 81.26310529 64.64605713 81.2538147 C63.52149109 81.25644318 63.52149109 81.25644318 62.37420654 81.25912476 C59.89001162 81.26353495 57.40588757 81.2606085 54.92169189 81.25723267 C53.20058682 81.25790587 51.47948183 81.25887604 49.75837708 81.26013184 C46.14947607 81.26160762 42.54059979 81.2594578 38.93170166 81.25479126 C34.29536951 81.24908977 29.65909519 81.25237639 25.02276516 81.25836372 C21.46870992 81.2619689 17.91466851 81.26083103 14.36061287 81.25823593 C12.65050309 81.25756676 10.94039207 81.25839473 9.23028374 81.26071548 C6.8454033 81.26324177 4.46061795 81.25940199 2.07574463 81.2538147 C1.00584038 81.25685104 1.00584038 81.25685104 -0.0856781 81.25994873 C-4.96013825 81.23868377 -4.96013825 81.23868377 -6.07440186 80.12442017 C-6.17472065 77.66536795 -6.21058366 75.23438589 -6.20379639 72.77481079 C-6.20554871 72.00573898 -6.20730103 71.23666718 -6.20910645 70.44429016 C-6.21352525 67.88972754 -6.21058688 65.33523356 -6.20721436 62.78067017 C-6.20788739 61.01329536 -6.2088574 59.24592063 -6.21011353 57.47854614 C-6.21159054 53.76951214 -6.20943584 50.06050217 -6.20477295 46.35147095 C-6.19907566 41.58619524 -6.20235465 36.82097585 -6.20834541 32.05570221 C-6.21195094 28.4047096 -6.21081248 24.75373044 -6.20821762 21.10273743 C-6.20754833 19.34517917 -6.20837685 17.58761972 -6.21069717 15.83006287 C-6.21322356 13.37801862 -6.20938332 10.92606686 -6.20379639 8.47402954 C-6.20582062 7.74048752 -6.20784485 7.0069455 -6.20993042 6.25117493 C-6.18478858 0.32510911 -5.93245712 0.01239988 0 0 Z M16.92559814 25.12442017 C17.25559814 26.77442017 17.58559814 28.42442017 17.92559814 30.12442017 C18.25559814 30.12442017 18.58559814 30.12442017 18.92559814 30.12442017 C18.92559814 28.47442017 18.92559814 26.82442017 18.92559814 25.12442017 C18.26559814 25.12442017 17.60559814 25.12442017 16.92559814 25.12442017 Z M14.92559814 27.12442017 C15.92559814 29.12442017 15.92559814 29.12442017 15.92559814 29.12442017 Z M13.92559814 30.12442017 C14.92559814 32.12442017 14.92559814 32.12442017 14.92559814 32.12442017 Z M16.92559814 32.12442017 C17.92559814 34.12442017 17.92559814 34.12442017 17.92559814 34.12442017 Z M12.92559814 33.12442017 C13.92559814 35.12442017 13.92559814 35.12442017 13.92559814 35.12442017 Z M11.92559814 36.12442017 C11.79282471 36.81149048 11.66005127 37.49856079 11.52325439 38.20645142 C11.34665283 39.1075061 11.17005127 40.00856079 10.98809814 40.93692017 C10.81407471 41.83024048 10.64005127 42.72356079 10.46075439 43.64395142 C9.92559814 46.12442017 9.92559814 46.12442017 8.92559814 49.12442017 C9.58559814 49.12442017 10.24559814 49.12442017 10.92559814 49.12442017 C10.47196644 50.70910694 10.01248363 52.29211941 9.55059814 53.87442017 C9.29536377 54.75613892 9.04012939 55.63785767 8.77716064 56.54629517 C8.00460474 58.88522589 7.08934139 60.95884578 5.92559814 63.12442017 C6.58559814 63.12442017 7.24559814 63.12442017 7.92559814 63.12442017 C8.25559814 64.11442017 8.58559814 65.10442017 8.92559814 66.12442017 C9.20274658 65.20918579 9.47989502 64.29395142 9.76544189 63.35098267 C10.12766846 62.16246704 10.48989502 60.97395142 10.86309814 59.74942017 C11.22274658 58.56606079 11.58239502 57.38270142 11.95294189 56.16348267 C12.92559814 53.12442017 12.92559814 53.12442017 13.92559814 51.12442017 C13.26559814 51.12442017 12.60559814 51.12442017 11.92559814 51.12442017 C12.43356824 46.80667437 13.12242594 43.09139902 14.92559814 39.12442017 C13.93559814 38.13442017 12.94559814 37.14442017 11.92559814 36.12442017 Z M14.92559814 37.12442017 C15.92559814 39.12442017 15.92559814 39.12442017 15.92559814 39.12442017 Z M20.92559814 39.12442017 C21.92559814 41.12442017 21.92559814 41.12442017 21.92559814 41.12442017 Z M6.92559814 66.12442017 C7.92559814 68.12442017 7.92559814 68.12442017 7.92559814 68.12442017 Z M5.92559814 68.12442017 C6.92559814 70.12442017 6.92559814 70.12442017 6.92559814 70.12442017 Z M0.92559814 72.12442017 C0.92559814 73.77442017 0.92559814 75.42442017 0.92559814 77.12442017 C1.91559814 76.13442017 2.90559814 75.14442017 3.92559814 74.12442017 C3.26559814 74.12442017 2.60559814 74.12442017 1.92559814 74.12442017 C1.59559814 73.46442017 1.26559814 72.80442017 0.92559814 72.12442017 Z M3.92559814 72.12442017 C4.92559814 74.12442017 4.92559814 74.12442017 4.92559814 74.12442017 Z " fill="#FFFFFF" transform="translate(6.07440185546875,-0.124420166015625)"/>
<path d="M0 0 C2.70153353 2.34129733 3.71524334 4.40507173 4.82421875 7.78125 C5.13037109 8.70550781 5.43652344 9.62976563 5.75195312 10.58203125 C6.06068359 11.54496094 6.36941406 12.50789062 6.6875 13.5 C7.00783203 14.46292969 7.32816406 15.42585938 7.65820312 16.41796875 C10 23.57817497 10 23.57817497 10 27 C13.63 27 17.26 27 21 27 C21 27.33 21 27.66 21 28 C14.07 28 7.14 28 0 28 C1.32 27.67 2.64 27.34 4 27 C3.34 25.02 2.68 23.04 2 21 C-0.31 20.67 -2.62 20.34 -5 20 C-5.67801034 22.90073181 -5.67801034 22.90073181 -6 26 C-5.34 26.66 -4.68 27.32 -4 28 C-12.58 28 -21.16 28 -30 28 C-28.87506247 21.25037481 -28.87506247 21.25037481 -27.22265625 18.0546875 C-26.87396484 17.37019531 -26.52527344 16.68570312 -26.16601562 15.98046875 C-25.80185547 15.28566406 -25.43769531 14.59085938 -25.0625 13.875 C-24.70220703 13.17246094 -24.34191406 12.46992188 -23.97070312 11.74609375 C-23.28336219 10.40685487 -22.59295706 9.06918245 -21.89892578 7.73339844 C-20.91284513 5.83193929 -19.94993425 3.9197624 -19 2 C-24.2213392 3.62419504 -24.2213392 3.62419504 -27.4375 7.6875 C-27.623125 8.450625 -27.80875 9.21375 -28 10 C-28.33 10 -28.66 10 -29 10 C-29 7.03 -29 4.06 -29 1 C-23.39 1 -17.78 1 -12 1 C-14.5378311 9.88240886 -18.77769651 17.82618207 -23 26 C-18.85745505 25.5399136 -18.85745505 25.5399136 -15.25 23.6875 C-13.90617376 21.87333457 -12.9225481 20.05799191 -12 18 C-11.67 18 -11.34 18 -11 18 C-11 20.97 -11 23.94 -11 27 C-10.01 27 -9.02 27 -8 27 C-7.79375 25.700625 -7.5875 24.40125 -7.375 23.0625 C-5.81502441 15.11350672 -2.79623483 7.5797309 0 0 Z M-2 11 C-2.66 13.64 -3.32 16.28 -4 19 C-2.02 19 -0.04 19 2 19 C1.01 16.36 0.02 13.72 -1 11 C-1.33 11 -1.66 11 -2 11 Z " fill="#FFFFFF" transform="translate(184,1)"/>
<path d="M0 0 C4.29 0 8.58 0 13 0 C11.02 0.99 11.02 0.99 9 2 C10.65 6.62 12.3 11.24 14 16 C14.680625 14.1025 15.36125 12.205 16.0625 10.25 C16.63677734 8.64898437 16.63677734 8.64898437 17.22265625 7.015625 C18.29741393 3.83810469 18.29741393 3.83810469 17 0 C25.91 0 34.82 0 44 0 C44 2.64 44 5.28 44 8 C43.34 8 42.68 8 42 8 C41.505 5.525 41.505 5.525 41 3 C38.03 2.67 35.06 2.34 32 2 C32 5.3 32 8.6 32 12 C33.32 11.67 34.64 11.34 36 11 C36.66 9.68 37.32 8.36 38 7 C38 10.63 38 14.26 38 18 C37.01 17.01 36.02 16.02 35 15 C34.01 14.67 33.02 14.34 32 14 C32 18.29 32 22.58 32 27 C30.35 27 28.7 27 27 27 C27 18.75 27 10.5 27 2 C25.02 2.33 23.04 2.66 21 3 C20.74307373 3.86951294 20.74307373 3.86951294 20.48095703 4.7565918 C19.69808664 7.40095988 18.91157788 10.04423247 18.125 12.6875 C17.85558594 13.59951172 17.58617187 14.51152344 17.30859375 15.45117188 C17.04433594 16.33740234 16.78007812 17.22363281 16.5078125 18.13671875 C16.26691895 18.94842529 16.02602539 19.76013184 15.77783203 20.59643555 C14.96228097 23.11655487 14.00971228 25.551924 13 28 C12.34 28 11.68 28 11 28 C10.7733667 27.25838623 10.5467334 26.51677246 10.31323242 25.75268555 C9.28103232 22.39454894 8.23445726 19.04106362 7.1875 15.6875 C6.65286133 13.93663086 6.65286133 13.93663086 6.10742188 12.15039062 C5.75615234 11.03212891 5.40488281 9.91386719 5.04296875 8.76171875 C4.72352295 7.73006592 4.40407715 6.69841309 4.07495117 5.63549805 C3.06838738 2.68069917 3.06838738 2.68069917 0 0 Z " fill="#FFFFFF" transform="translate(132,34)"/>
<path d="M0 0 C2.39706123 -0.10854617 4.78915838 -0.18753157 7.1875 -0.25 C7.86103516 -0.28351562 8.53457031 -0.31703125 9.22851562 -0.3515625 C12.87755284 -0.42276323 14.84111347 -0.09990751 17.95703125 1.859375 C20 4 20 4 20.5 6.5 C19.92718989 9.36405057 18.92417491 10.83530323 17 13 C17.72509766 13.60134766 17.72509766 13.60134766 18.46484375 14.21484375 C20.36883049 16.42889448 20.41539606 17.68211001 20.5625 20.5625 C20.66968944 24.22201338 20.66968944 24.22201338 23 27 C22 28 22 28 19.5625 28.1875 C17 28 17 28 15 26 C14.5859375 23.6171875 14.5859375 23.6171875 14.375 20.875 C14.30023438 19.96492188 14.22546875 19.05484375 14.1484375 18.1171875 C14.09945312 17.41851562 14.05046875 16.71984375 14 16 C12.02 15.34 10.04 14.68 8 14 C8 18.29 8 22.58 8 27 C6.35 27 4.7 27 3 27 C3 18.75 3 10.5 3 2 C2.01 1.67 1.02 1.34 0 1 C0 0.67 0 0.34 0 0 Z M8 2 C8 5.3 8 8.6 8 12 C8.99 12.495 8.99 12.495 10 13 C12.13875077 11.98239527 12.13875077 11.98239527 14 10 C14.41692853 6.41600593 14.41692853 6.41600593 14 3 C13.67 2.67 13.34 2.34 13 2 C11.35 2 9.7 2 8 2 Z " fill="#FFFFFF" transform="translate(90,34)"/>
<path d="M0 0 C3.3 0 6.6 0 10 0 C12.64 4.62 15.28 9.24 18 14 C18.33 10.04 18.66 6.08 19 2 C18.01 2 17.02 2 16 2 C16 1.34 16 0.68 16 0 C18.31 0 20.62 0 23 0 C22.67 0.66 22.34 1.32 22 2 C21.84621148 3.95774069 21.75028537 5.92017352 21.68359375 7.8828125 C21.64169922 9.04941406 21.59980469 10.21601562 21.55664062 11.41796875 C21.51732422 12.64128906 21.47800781 13.86460938 21.4375 15.125 C21.39431641 16.35605469 21.35113281 17.58710937 21.30664062 18.85546875 C21.20031296 21.90352853 21.09828219 24.9516719 21 28 C20.01 28 19.02 28 18 28 C16.55786133 26.1640625 16.55786133 26.1640625 15.08203125 23.625 C14.55029297 22.72265625 14.01855469 21.8203125 13.47070312 20.890625 C12.92349609 19.93671875 12.37628906 18.9828125 11.8125 18 C10.97428711 16.56914063 10.97428711 16.56914063 10.11914062 15.109375 C8.73618669 12.74535117 7.36681815 10.37338965 6 8 C5.67 14.27 5.34 20.54 5 27 C4.34 27 3.68 27 3 27 C3 18.75 3 10.5 3 2 C2.01 1.67 1.02 1.34 0 1 C0 0.67 0 0.34 0 0 Z " fill="#FFFFFF" transform="translate(178,34)"/>
<path d="M0 0 C3.28454558 -0.88956443 5.75165983 -1.10613741 9 0 C12.30730071 4.02415406 14.66129373 8.36082244 17 13 C17.33 9.04 17.66 5.08 18 1 C17.34 0.67 16.68 0.34 16 0 C18.31 0 20.62 0 23 0 C22.01 0.33 21.02 0.66 20 1 C20 9.91 20 18.82 20 28 C16.02432853 26.67477618 15.62750097 25.05740559 13.625 21.4375 C10.87542257 16.50960438 8.00334727 11.80535563 5 7 C4.67 13.27 4.34 19.54 4 26 C4.99 26.33 5.98 26.66 7 27 C4.69 27 2.38 27 0 27 C0.66 26.34 1.32 25.68 2 25 C2.37135915 22.47962036 2.37135915 22.47962036 2.4140625 19.5546875 C2.45273438 18.47832031 2.49140625 17.40195312 2.53125 16.29296875 C2.5621875 15.16503906 2.593125 14.03710938 2.625 12.875 C2.66367188 11.73933594 2.70234375 10.60367187 2.7421875 9.43359375 C2.83667601 6.62256044 2.92223541 3.81153767 3 1 C2.01 0.67 1.02 0.34 0 0 Z " fill="#FFFFFF" transform="translate(222,2)"/>
<path d="M0 0 C6.6 0 13.2 0 20 0 C20 2.64 20 5.28 20 8 C18 7 18 7 17.3125 5 C16.879375 4.34 16.44625 3.68 16 3 C12.43793339 2.18129815 12.43793339 2.18129815 9 2 C9 4.97 9 7.94 9 11 C9.99 11 10.98 11 12 11 C12.66 9.68 13.32 8.36 14 7 C14 10.63 14 14.26 14 18 C13.01 17.01 12.02 16.02 11 15 C10.01 14.67 9.02 14.34 8 14 C8.33 17.63 8.66 21.26 9 25 C13.14816736 24.59425557 13.14816736 24.59425557 16.75 22.6875 C18.28712889 20.71411889 18.28712889 20.71411889 20 17 C20 20.3 20 23.6 20 27 C13.4 27 6.8 27 0 27 C0.99 26.67 1.98 26.34 3 26 C3 17.75 3 9.5 3 1 C2.01 0.67 1.02 0.34 0 0 Z " fill="#FFFFFF" transform="translate(246,2)"/>
<path d="M0 0 C3.31615085 -0.98778961 5.71543851 -1.17376221 9 0 C12.82386285 4.01206191 15.3873221 9.1575899 18 14 C18.33 9.71 18.66 5.42 19 1 C18.01 0.67 17.02 0.34 16 0 C18.31 0 20.62 0 23 0 C22.01 0.495 22.01 0.495 21 1 C21.01047363 1.74685059 21.02094727 2.49370117 21.03173828 3.26318359 C21.0732077 6.63375508 21.09929729 10.004273 21.125 13.375 C21.15013672 15.1384375 21.15013672 15.1384375 21.17578125 16.9375 C21.18222656 18.05898438 21.18867188 19.18046875 21.1953125 20.3359375 C21.20578613 21.37282715 21.21625977 22.4097168 21.22705078 23.47802734 C21 26 21 26 19 28 C14.73388183 22.17009575 10.79681979 16.18025092 7.0625 10 C6.6610376 9.3412085 6.2595752 8.68241699 5.84594727 8.00366211 C3 3.24392201 3 3.24392201 3 1 C2.01 0.67 1.02 0.34 0 0 Z " fill="#FFFFFF" transform="translate(197,2)"/>
<path d="M0 0 C0 0.66 0 1.32 0 2 C-0.99 2.33 -1.98 2.66 -3 3 C-3.33 3.99 -3.66 4.98 -4 6 C-1.5806729 8.55757436 0.58888128 10.75528648 3.625 12.5625 C6.262347 14.15878898 7.58812598 15.2546894 9 18 C8.92670999 21.51792069 8.39995339 23.43083556 6.375 26.3125 C2.29782333 29.20944131 -1.59043137 29.17939964 -6.4375 28.5625 C-7.283125 28.376875 -8.12875 28.19125 -9 28 C-9 24.7 -9 21.4 -9 18 C-6.64046906 20.35953094 -6.50858587 21.77895617 -6 25 C-4.72125 25.165 -3.4425 25.33 -2.125 25.5 C-1.04605469 25.63921875 -1.04605469 25.63921875 0.0546875 25.78125 C2.00498344 26.0372485 2.00498344 26.0372485 4 26 C4.45561681 23.68036736 4.45561681 23.68036736 4 21 C1.62742575 18.67810882 1.62742575 18.67810882 -1.4375 16.75 C-2.44683594 16.06421875 -3.45617187 15.3784375 -4.49609375 14.671875 C-5.32238281 14.12015625 -6.14867188 13.5684375 -7 13 C-8 12 -8 12 -8.25 8.125 C-8.2020808 4.29830976 -8.2020808 4.29830976 -6.6875 2.0625 C-4.49287449 0.68069876 -2.6037541 0 0 0 Z " fill="#FFFFFF" transform="translate(120,1)"/>
<path d="M0 0 C3.3 0 6.6 0 10 0 C9.01 0.495 9.01 0.495 8 1 C8.08060591 4.62592996 8.19346817 8.25014402 8.3125 11.875 C8.33505859 12.90753906 8.35761719 13.94007812 8.38085938 15.00390625 C8.41630859 15.99003906 8.45175781 16.97617187 8.48828125 17.9921875 C8.51446533 18.90339355 8.54064941 19.81459961 8.56762695 20.75341797 C8.71031006 21.49479004 8.85299316 22.23616211 9 23 C11.84826598 25.36692966 11.84826598 25.36692966 15.1875 24.625 C16.5796875 24.315625 16.5796875 24.315625 18 24 C17 27 17 27 15 28 C10.03741054 28.37453505 6.95586258 28.14142028 3 25 C2.01956036 22.05868109 1.88378798 20.17498335 1.90234375 17.11328125 C1.90556641 16.17548828 1.90878906 15.23769531 1.91210938 14.27148438 C1.92048828 13.29501953 1.92886719 12.31855469 1.9375 11.3125 C1.94201172 10.32443359 1.94652344 9.33636719 1.95117188 8.31835938 C1.96295697 5.87884526 1.97940989 3.43945311 2 1 C1.34 0.67 0.68 0.34 0 0 Z " fill="#FFFFFF" transform="translate(130,2)"/>
<path d="M0 0 C0.99 0 1.98 0 3 0 C4.34065238 3.93504649 5.67126071 7.87341646 7 11.8125 C7.3815625 12.93205078 7.763125 14.05160156 8.15625 15.20507812 C8.5171875 16.27822266 8.878125 17.35136719 9.25 18.45703125 C9.58515625 19.44678955 9.9203125 20.43654785 10.265625 21.45629883 C11 24 11 24 11 27 C9.02 27 7.04 27 5 27 C3.35 22.05 1.7 17.1 0 12 C-2.04650391 15.06975587 -2.99704565 17.69084152 -4.125 21.1875 C-4.47820312 22.27417969 -4.83140625 23.36085938 -5.1953125 24.48046875 C-5.46085938 25.31191406 -5.72640625 26.14335938 -6 27 C-6.66 27 -7.32 27 -8 27 C-7.35166751 23.46895311 -6.47003094 20.11591437 -5.37109375 16.69921875 C-5.05849609 15.72275391 -4.74589844 14.74628906 -4.42382812 13.74023438 C-4.09833984 12.73283203 -3.77285156 11.72542969 -3.4375 10.6875 C-3.10814453 9.66076172 -2.77878906 8.63402344 -2.43945312 7.57617188 C-1.62872538 5.04999121 -0.81549782 2.52464402 0 0 Z " fill="#FFFFFF" transform="translate(211,34)"/>
<path d="M0 0 C0.66 0 1.32 0 2 0 C3.15336265 3.37247371 4.29632867 6.74838345 5.4375 10.125 C5.76298828 11.07632813 6.08847656 12.02765625 6.42382812 13.0078125 C7.98961334 17.65674181 9.41485682 22.10457679 10 27 C8.02 27 6.04 27 4 27 C3.32815382 24.89748139 2.66269032 22.79292237 2 20.6875 C1.443125 18.92986328 1.443125 18.92986328 0.875 17.13671875 C0 14 0 14 0 11 C-2.32856369 11.87689575 -2.32856369 11.87689575 -3.03515625 14.87109375 C-3.37417969 16.04800781 -3.71320313 17.22492187 -4.0625 18.4375 C-5.93175853 24.86351706 -5.93175853 24.86351706 -7 27 C-7.66 26.67 -8.32 26.34 -9 26 C-7.69246439 21.85258414 -6.37814669 17.70734931 -5.0625 13.5625 C-4.68931641 12.37849609 -4.31613281 11.19449219 -3.93164062 9.97460938 C-3.57392578 8.84990234 -3.21621094 7.72519531 -2.84765625 6.56640625 C-2.51773682 5.52427979 -2.18781738 4.48215332 -1.84790039 3.40844727 C-1 1 -1 1 0 0 Z " fill="#FFFFFF" transform="translate(124,34)"/>
<path d="M0 0 C3.63 0 7.26 0 11 0 C11 0.66 11 1.32 11 2 C10.01 2 9.02 2 8 2 C8 10.25 8 18.5 8 27 C6.02 27 4.04 27 2 27 C1.97494385 26.25314941 1.9498877 25.50629883 1.92407227 24.73681641 C1.80831787 21.36602733 1.68549872 17.99553217 1.5625 14.625 C1.52318359 13.449375 1.48386719 12.27375 1.44335938 11.0625 C1.40146484 9.94101562 1.35957031 8.81953125 1.31640625 7.6640625 C1.27974854 6.62717285 1.24309082 5.5902832 1.20532227 4.52197266 C1.15835777 2.00574834 1.15835777 2.00574834 0 0 Z " fill="#FFFFFF" transform="translate(225,34)"/>
<path d="M0 0 C3.63 0 7.26 0 11 0 C10.67 0.66 10.34 1.32 10 2 C9.34 2 8.68 2 8 2 C8 10.25 8 18.5 8 27 C6.02 27 4.04 27 2 27 C1.97494385 26.25314941 1.9498877 25.50629883 1.92407227 24.73681641 C1.80831787 21.36602733 1.68549872 17.99553217 1.5625 14.625 C1.52318359 13.449375 1.48386719 12.27375 1.44335938 11.0625 C1.40146484 9.94101562 1.35957031 8.81953125 1.31640625 7.6640625 C1.27974854 6.62717285 1.24309082 5.5902832 1.20532227 4.52197266 C1.15835777 2.00574834 1.15835777 2.00574834 0 0 Z " fill="#FFFFFF" transform="translate(247,34)"/>
<path d="M0 0 C0.99 0 1.98 0 3 0 C3.66 1.65 4.32 3.3 5 5 C5.433125 4.175 5.86625 3.35 6.3125 2.5 C6.869375 1.675 7.42625 0.85 8 0 C8.99 0 9.98 0 11 0 C11 3.96 11 7.92 11 12 C10.34 12 9.68 12 9 12 C8.67 10.68 8.34 9.36 8 8 C7.34 9.32 6.68 10.64 6 12 C5.34 12 4.68 12 4 12 C3.67 10.35 3.34 8.7 3 7 C2.34 7 1.68 7 1 7 C1 8.65 1 10.3 1 12 C0.34 12 -0.32 12 -1 12 C-1.02687279 10.18757948 -1.04633715 8.37504767 -1.0625 6.5625 C-1.07410156 5.55316406 -1.08570313 4.54382813 -1.09765625 3.50390625 C-1 1 -1 1 0 0 Z " fill="#FFFFFF" transform="translate(194,69)"/>
<path d="M0 0 C4 2 4 2 6 5 C6.33 3.35 6.66 1.7 7 0 C7.99 0 8.98 0 10 0 C10 3.63 10 7.26 10 11 C8.68 11 7.36 11 6 11 C4.25 9 4.25 9 3 7 C2.67 8.65 2.34 10.3 2 12 C1.34 12 0.68 12 0 12 C0 8.04 0 4.08 0 0 Z " fill="#FFFFFF" transform="translate(128,69)"/>
<path d="M0 0 C1.9375 1.625 1.9375 1.625 3 4 C2.77962372 7.67293796 2.63033454 9.36966546 0 12 C-3.10347254 12.33015665 -5.15781176 12.50531294 -7.875 10.875 C-9.52854531 8.11909116 -9.39365568 6.14924548 -9 3 C-6.79848461 -0.66919231 -4.00961374 -0.58473534 0 0 Z M-4 2 C-4.66 2.66 -5.32 3.32 -6 4 C-5.67958603 6.60280568 -5.67958603 6.60280568 -5 9 C-3.68 9 -2.36 9 -1 9 C-0.67 7.35 -0.34 5.7 0 4 C-1.32 3.34 -2.64 2.68 -4 2 Z " fill="#FFFFFF" transform="translate(250,69)"/>
<path d="M0 0 C3.0625 0.3125 3.0625 0.3125 4.9375 1.4375 C6.59104531 4.19340884 6.45615568 6.16325452 6.0625 9.3125 C5 11.25 5 11.25 3.0625 12.3125 C-3.38194444 11.86805556 -3.38194444 11.86805556 -4.9375 10.3125 C-5.21064815 4.57638889 -5.21064815 4.57638889 -4.9375 2.3125 C-2.9375 0.3125 -2.9375 0.3125 0 0 Z M0.0625 2.3125 C-1.58305699 3.54059091 -1.58305699 3.54059091 -2.9375 5.3125 C-2.94228037 7.4602633 -2.94228037 7.4602633 -1.9375 9.3125 C-0.9475 9.6425 0.0425 9.9725 1.0625 10.3125 C1.7225 9.9825 2.3825 9.6525 3.0625 9.3125 C3.0625 7.3325 3.0625 5.3525 3.0625 3.3125 C2.0725 2.9825 1.0825 2.6525 0.0625 2.3125 Z " fill="#FFFFFF" transform="translate(169.9375,68.6875)"/>
<path d="M0 0 C1.98 0 3.96 0 6 0 C7.89688882 1.89688882 7 5.46151915 7 8 C7.42854995 10.31036915 7.42854995 10.31036915 8 12 C6.0625 11.625 6.0625 11.625 4 11 C3.67 10.34 3.34 9.68 3 9 C2.67 9.99 2.34 10.98 2 12 C1.34 12 0.68 12 0 12 C0 8.04 0 4.08 0 0 Z M2 2 C2 2.99 2 3.98 2 5 C2.99 4.67 3.98 4.34 5 4 C4.01 3.34 3.02 2.68 2 2 Z " fill="#FFFFFF" transform="translate(181,69)"/>
<path d="M0 0 C1.98 0 3.96 0 6 0 C7.89688882 1.89688882 7 5.46151915 7 8 C7.42854995 10.31036915 7.42854995 10.31036915 8 12 C6.0625 11.625 6.0625 11.625 4 11 C3.67 10.34 3.34 9.68 3 9 C2.67 9.99 2.34 10.98 2 12 C1.34 12 0.68 12 0 12 C0 8.04 0 4.08 0 0 Z M2 2 C2 2.99 2 3.98 2 5 C2.99 4.67 3.98 4.34 5 4 C4.01 3.34 3.02 2.68 2 2 Z " fill="#FFFFFF" transform="translate(103,69)"/>
<path d="M0 0 C0.99 0 1.98 0 3 0 C5.1875 3 5.1875 3 7 6 C7.33 4.02 7.66 2.04 8 0 C8.33 0 8.66 0 9 0 C9 3.96 9 7.92 9 12 C5.26360784 10.75453595 4.81243487 9.36595047 3 6 C2.67 7.98 2.34 9.96 2 12 C1.34 12 0.68 12 0 12 C0 8.04 0 4.08 0 0 Z " fill="#FFFFFF" transform="translate(257,69)"/>
<path d="M0 0 C0.99 0.33 1.98 0.66 3 1 C3.94921875 3.28515625 3.94921875 3.28515625 4.6875 6.0625 C5.06455078 7.44115234 5.06455078 7.44115234 5.44921875 8.84765625 C5.63097656 9.55792969 5.81273437 10.26820312 6 11 C5.01 11.33 4.02 11.66 3 12 C2.67 11.34 2.34 10.68 2 10 C1.01 9.67 0.02 9.34 -1 9 C-1.33 9.99 -1.66 10.98 -2 12 C-2.66 12 -3.32 12 -4 12 C-3.33501617 7.61110675 -1.81242323 4.0188515 0 0 Z " fill="#FFFFFF" transform="translate(213,69)"/>
<path d="M0 0 C0.66 0 1.32 0 2 0 C5.42857143 7.28571429 5.42857143 7.28571429 5 12 C4.34 12 3.68 12 3 12 C2.67 11.34 2.34 10.68 2 10 C1.01 9.67 0.02 9.34 -1 9 C-1.33 9.99 -1.66 10.98 -2 12 C-2.66 12 -3.32 12 -4 12 C-3.52494322 10.18641846 -3.04483958 8.37415821 -2.5625 6.5625 C-2.29566406 5.55316406 -2.02882813 4.54382813 -1.75390625 3.50390625 C-1 1 -1 1 0 0 Z " fill="#FFFFFF" transform="translate(118,69)"/>
<path d="M0 0 C1.2065625 0.0309375 1.2065625 0.0309375 2.4375 0.0625 C1.4375 3.0625 1.4375 3.0625 0.4375 4.0625 C0.953125 4.475 1.46875 4.8875 2 5.3125 C2.474375 5.89 2.94875 6.4675 3.4375 7.0625 C3.18603421 9.19995922 2.97824221 10.52175779 1.4375 12.0625 C-0.22867115 12.10313832 -1.89638095 12.105221 -3.5625 12.0625 C-3.5625 11.0725 -3.5625 10.0825 -3.5625 9.0625 C-2.5725 8.7325 -1.5825 8.4025 -0.5625 8.0625 C-1.5525 7.4025 -2.5425 6.7425 -3.5625 6.0625 C-3.8125 3.5 -3.8125 3.5 -3.5625 1.0625 C-2.5625 0.0625 -2.5625 0.0625 0 0 Z " fill="#FFFFFF" transform="translate(146.5625,68.9375)"/>
<path d="M0 0 C1.98 0 3.96 0 6 0 C6 0.66 6 1.32 6 2 C4.68 2 3.36 2 2 2 C2 2.99 2 3.98 2 5 C3.32 5 4.64 5 6 5 C6 5.66 6 6.32 6 7 C4.68 7 3.36 7 2 7 C1.67 8.65 1.34 10.3 1 12 C0.34 11.67 -0.32 11.34 -1 11 C-1.0270043 9.54176788 -1.04639787 8.08339325 -1.0625 6.625 C-1.07410156 5.81289062 -1.08570313 5.00078125 -1.09765625 4.1640625 C-1 2 -1 2 0 0 Z " fill="#FFFFFF" transform="translate(155,69)"/>
<path d="M0 0 C2.97 0 5.94 0 9 0 C9 0.66 9 1.32 9 2 C8.01 2 7.02 2 6 2 C6 4.97 6 7.94 6 11 C5.01 11.33 4.02 11.66 3 12 C3 8.7 3 5.4 3 2 C2.01 2 1.02 2 0 2 C0 1.34 0 0.68 0 0 Z " fill="#FFFFFF" transform="translate(221,69)"/>
<path d="M0 0 C0.99 0.33 1.98 0.66 3 1 C3 4.63 3 8.26 3 12 C2.01 12.33 1.02 12.66 0 13 C-0.19397476 11.02145742 -0.38001321 9.0421352 -0.5625 7.0625 C-0.66691406 5.96035156 -0.77132812 4.85820312 -0.87890625 3.72265625 C-0.91886719 2.82417969 -0.95882812 1.92570313 -1 1 C-0.67 0.67 -0.34 0.34 0 0 Z " fill="#FFFFFF" transform="translate(101,1)"/>
<path d="M0 0 C2.97 0 5.94 0 9 0 C9 0.66 9 1.32 9 2 C7.68 2 6.36 2 5 2 C5 5.3 5 8.6 5 12 C4.34 12 3.68 12 3 12 C3 8.7 3 5.4 3 2 C2.01 2 1.02 2 0 2 C0 1.34 0 0.68 0 0 Z " fill="#FFFFFF" transform="translate(90,69)"/>
<path d="M0 0 C0.66 0 1.32 0 2 0 C2 2.97 2 5.94 2 9 C-0.97 9 -3.94 9 -7 9 C-6.21625 8.443125 -5.4325 7.88625 -4.625 7.3125 C-1.91295142 4.92331435 -1.03866457 3.39926587 0 0 Z " fill="#FFFFFF" transform="translate(175,52)"/>
<path d="M0 0 C0.66 0 1.32 0 2 0 C2 4.29 2 8.58 2 13 C1.01 12.67 0.02 12.34 -1 12 C-1.02687279 10.18757948 -1.04633715 8.37504767 -1.0625 6.5625 C-1.07410156 5.55316406 -1.08570312 4.54382813 -1.09765625 3.50390625 C-1 1 -1 1 0 0 Z " fill="#FFFFFF" transform="translate(91,1)"/>
<path d="M0 0 C2.64 0 5.28 0 8 0 C7.01 0.33 6.02 0.66 5 1 C5 8.26 5 15.52 5 23 C4.34 23.33 3.68 23.66 3 24 C3.33 16.41 3.66 8.82 4 1 C2.68 0.67 1.36 0.34 0 0 Z " fill="#FFFFFF" transform="translate(145,2)"/>
<path d="M0 0 C0.33 0 0.66 0 1 0 C1 2.97 1 5.94 1 9 C-1.64 9 -4.28 9 -7 9 C-5.625 7.5 -5.625 7.5 -4 6 C-3.34 6 -2.68 6 -2 6 C-1.34 4.02 -0.68 2.04 0 0 Z " fill="#FFFFFF" transform="translate(244,52)"/>
<path d="M0 0 C0.99 0 1.98 0 3 0 C3 3.96 3 7.92 3 12 C2.34 12 1.68 12 1 12 C0.03929566 9.11788698 -0.10581883 7.30149956 -0.0625 4.3125 C-0.05347656 3.50425781 -0.04445313 2.69601563 -0.03515625 1.86328125 C-0.02355469 1.24839844 -0.01195313 0.63351563 0 0 Z " fill="#FFFFFF" transform="translate(105,2)"/>
<path d="M0 0 C0.99 0 1.98 0 3 0 C3 2.97 3 5.94 3 9 C1.68 9.33 0.36 9.66 -1 10 C-0.67 6.7 -0.34 3.4 0 0 Z " fill="#FFFFFF" transform="translate(96,3)"/>
<path d="M0 0 C1.98 0 3.96 0 6 0 C6 2.64 6 5.28 6 8 C5.34 8 4.68 8 4 8 C2.66666667 5.33333333 1.33333333 2.66666667 0 0 Z " fill="#FFFFFF" transform="translate(121,2)"/>
<path d="M0 0 C0.33 0 0.66 0 1 0 C1 2.64 1 5.28 1 8 C-1.64 8 -4.28 8 -7 8 C-6.21625 7.4225 -5.4325 6.845 -4.625 6.25 C-2.19952756 4.17102363 -1.14305583 2.90959667 0 0 Z " fill="#FFFFFF" transform="translate(265,53)"/>
<path d="M0 0 C0.33 0 0.66 0 1 0 C1 3.96 1 7.92 1 12 C0.34 12 -0.32 12 -1 12 C-1.02687279 10.18757948 -1.04633715 8.37504767 -1.0625 6.5625 C-1.07410156 5.55316406 -1.08570313 4.54382813 -1.09765625 3.50390625 C-1 1 -1 1 0 0 Z " fill="#FFFFFF" transform="translate(235,69)"/>
</svg>
